  0
SECTION
  2
HEADER
  9
ACADVER$
  1
AC1009
  9
FILLMODE$
 70
 0
  9
SPLFRAME$
 70
 1
  9
EXTMIN$
 10
0
 20
0
 30
0.0
  9
EXTMAX$
 10
1058.33
 20
1058.33
 30
0.0
  0
ENDSEC
  0
SECTION
  2
TABLES
  0
TABLE
  2
LAYER
 70
1
  0
LAYER
  2
0
 70
     0
 62
     7
  6
CONTINUOUS
  0
ENDTAB
  0
ENDSEC
  0
SECTION
  2
ENTITIES
  0
LINE
  8
0
 62
     2
 10
45.2229
 20
1115.81
 30
0.0
 11
103.008
 21
1115.81
 31
0.0
  0
LINE
  8
0
 62
     2
 10
103.008
 20
1115.81
 30
0.0
 11
102.996
 21
859.547
 31
0.0
  0
LINE
  8
0
 62
     2
 10
102.996
 20
859.547
 30
0.0
 11
45.2229
 21
859.547
 31
0.0
  0
LINE
  8
0
 62
     2
 10
45.2229
 20
859.547
 30
0.0
 11
45.2229
 21
1115.81
 31
0.0
  0
LINE
  8
0
 62
     2
 10
45.2229
 20
615.834
 30
0.0
 11
102.996
 21
615.844
 31
0.0
  0
LINE
  8
0
 62
     2
 10
102.996
 20
615.844
 30
0.0
 11
102.996
 21
341.995
 31
0.0
  0
LINE
  8
0
 62
     2
 10
102.996
 20
341.995
 30
0.0
 11
45.2229
 21
342.007
 31
0.0
  0
LINE
  8
0
 62
     2
 10
45.2229
 20
342.007
 30
0.0
 11
45.2229
 21
615.834
 31
0.0
  0
LINE
  8
0
 62
     2
 10
45.2229
 20
1874.56
 30
0.0
 11
103.008
 21
1874.56
 31
0.0
  0
LINE
  8
0
 62
     2
 10
103.008
 20
1874.56
 30
0.0
 11
103.008
 21
1600.7
 31
0.0
  0
LINE
  8
0
 62
     2
 10
103.008
 20
1600.7
 30
0.0
 11
45.2229
 21
1600.72
 31
0.0
  0
LINE
  8
0
 62
     2
 10
45.2229
 20
1600.72
 30
0.0
 11
45.2229
 21
1874.56
 31
0.0
  0
LINE
  8
0
 62
     2
 10
45.2328
 20
2610.69
 30
0.0
 11
103.008
 21
2610.69
 31
0.0
  0
LINE
  8
0
 62
     2
 10
103.008
 20
2610.69
 30
0.0
 11
103.008
 21
2321.76
 31
0.0
  0
LINE
  8
0
 62
     2
 10
103.008
 20
2321.76
 30
0.0
 11
45.2229
 21
2321.76
 31
0.0
  0
LINE
  8
0
 62
     2
 10
45.2229
 20
2321.76
 30
0.0
 11
45.2328
 21
2610.69
 31
0.0
  0
LINE
  8
0
 62
     2
 10
103.008
 20
2964.93
 30
0.0
 11
55.2718
 21
2964.93
 31
0.0
  0
LINE
  8
0
 62
     2
 10
55.2718
 20
2964.93
 30
0.0
 11
55.2732
 21
3256.37
 31
0.0
  0
LINE
  8
0
 62
     2
 10
55.2732
 20
3256.37
 30
0.0
 11
103.008
 21
3256.37
 31
0.0
  0
LINE
  8
0
 62
     2
 10
103.008
 20
3256.37
 30
0.0
 11
103.008
 21
2964.93
 31
0.0
  0
ENDSEC
  0
EOF
