<svg xmlns="http://www.w3.org/2000/svg">
  <symbol id="wait" viewBox="0 0 100 100">
    <g width="100" height="100">
      <animateTransform
        attributeName="transform"
        dur="2s"
        from="0 50 50"
        repeatCount="indefinite"
        to="360 50 50"
        type="rotate"
      />

      <circle
        cx="50"
        cy="50"
        fill="transparent"
        r="45"
        stroke-dasharray="283"
        stroke-dashoffset="75"
        stroke-width="10"
        stroke="currentColor"
      >
        <animateTransform
          attributeName="transform"
          calcMode="spline"
          dur="1.4s"
          keySplines="0.42 0 0.58 1; 0.42 0 0.58 1; 0.42 0 0.58 1; 0.42 0 0.58 1"
          keyTimes="0; 0.25; 0.5; 0.75; 1"
          repeatCount="indefinite"
          type="rotate"
          values="0 50 50; 0 50 50; 45 50 50; 45 50 50; 360 50 50"
        />
        <animate
          attributeName="stroke-dashoffset"
          calcMode="spline"
          dur="1.4s"
          keySplines="0.42 0 0.58 1; 0.42 0 0.58 1; 0.42 0 0.58 1; 0.42 0 0.58 1"
          keyTimes="0; 0.25; 0.5; 0.75; 1"
          repeatCount="indefinite"
          values="280; 280; 75; 75; 280"
        />
      </circle>
    </g>
  </symbol>
  <symbol id="menu" viewBox="10 12 30 24">
    <path
      d="M10 12h30v4H10zM10 22h30v4H10zM10 32h30v4H10z"
      fill="currentColor"
    ></path>
  </symbol>
  <symbol id="map" viewBox="5 5 90 90">
    <path
      d="M75 30h-7v13H45v5h10v17h5V48h28v40H60v-8h-5v8H13V48h17v-5H13V13h55v7h7V5H5v90h90V40H75z"
      fill="currentColor"
    ></path>
  </symbol>
  <symbol id="back" viewBox="1 4 50 44">
    <path
      d="M22 16V4L1 24l21 20V32s17-4 29 16c0 0 3-15-10-27 0 0-6-5-19-5z"
      fill="currentColor"
    ></path>
  </symbol>
</svg>
