  0
SECTION
  2
HEADER
  9
$ACADVER
  1
AC1009
  9
$FILLMODE
 70
 0
  9
$SPLFRAME
 70
 1
  9
$EXTMIN
 10
0
 20
0
 30
0.0
  9
$EXTMAX
 10
1058.33
 20
1058.33
 30
0.0
  0
ENDSEC
  0
SECTION
  2
TABLES
  0
TABLE
  2
LAYER
 70
1
  0
LAYER
  2
0
 70
     0
 62
     7
  6
CONTINUOUS
  0
ENDTAB
  0
ENDSEC
  0
SECTION
  2
ENTITIES
  0
LINE
  8
0
 62
     9
 10
32.6609
 20
0.310059
 30
0.0
 11
32.6609
 21
17.8952
 31
0.0
  0
LINE
  8
0
 62
     9
 10
32.6609
 20
17.8952
 30
0.0
 11
952.197
 21
17.8952
 31
0.0
  0
LINE
  8
0
 62
     9
 10
952.197
 20
17.8952
 30
0.0
 11
952.197
 21
78.1939
 31
0.0
  0
LINE
  8
0
 62
     9
 10
952.197
 20
78.1939
 30
0.0
 11
911.998
 21
78.1939
 31
0.0
  0
LINE
  8
0
 62
     9
 10
911.998
 20
78.1939
 30
0.0
 11
911.998
 21
914.82
 31
0.0
  0
LINE
  8
0
 62
     9
 10
911.998
 20
914.82
 30
0.0
 11
884.361
 21
914.82
 31
0.0
  0
LINE
  8
0
 62
     9
 10
884.361
 20
914.82
 30
0.0
 11
884.361
 21
78.1939
 31
0.0
  0
LINE
  8
0
 62
     9
 10
884.361
 20
78.1939
 30
0.0
 11
819.249
 21
78.2147
 31
0.0
  0
LINE
  8
0
 62
     9
 10
819.249
 20
78.2147
 30
0.0
 11
168.121
 21
78.1953
 31
0.0
  0
LINE
  8
0
 62
     9
 10
168.121
 20
78.1953
 30
0.0
 11
103.008
 21
78.2394
 31
0.0
  0
LINE
  8
0
 62
     9
 10
103.008
 20
78.2394
 30
0.0
 11
102.996
 21
341.995
 31
0.0
  0
LINE
  8
0
 62
     9
 10
102.996
 20
341.995
 30
0.0
 11
45.2229
 21
341.995
 31
0.0
  0
LINE
  8
0
 62
     9
 10
45.2229
 20
341.995
 30
0.0
 11
45.2229
 21
364.606
 31
0.0
  0
LINE
  8
0
 62
     9
 10
45.2229
 20
364.606
 30
0.0
 11
22.6122
 21
364.606
 31
0.0
  0
LINE
  8
0
 62
     9
 10
22.6122
 20
364.606
 30
0.0
 11
22.6122
 21
341.995
 31
0.0
  0
LINE
  8
0
 62
     9
 10
22.6122
 20
341.995
 30
0.0
 11
0
 21
341.995
 31
0.0
  0
LINE
  8
0
 62
     9
 10
0
 20
341.995
 30
0.0
 11
0
 21
0.310059
 31
0.0
  0
LINE
  8
0
 62
     9
 10
0
 20
0.310059
 30
0.0
 11
32.6609
 21
0.310059
 31
0.0
  0
LINE
  8
0
 62
     9
 10
22.6122
 20
884.671
 30
0.0
 11
22.6122
 21
590.723
 31
0.0
  0
LINE
  8
0
 62
     9
 10
22.6122
 20
590.723
 30
0.0
 11
45.2229
 21
590.723
 31
0.0
  0
LINE
  8
0
 62
     9
 10
45.2229
 20
590.723
 30
0.0
 11
45.2229
 21
615.844
 31
0.0
  0
LINE
  8
0
 62
     9
 10
45.2229
 20
615.844
 30
0.0
 11
103.008
 21
615.844
 31
0.0
  0
LINE
  8
0
 62
     9
 10
103.008
 20
615.844
 30
0.0
 11
103.008
 21
859.547
 31
0.0
  0
LINE
  8
0
 62
     9
 10
103.008
 20
859.547
 30
0.0
 11
45.2229
 21
859.547
 31
0.0
  0
LINE
  8
0
 62
     9
 10
45.2229
 20
859.547
 30
0.0
 11
45.2229
 21
884.671
 31
0.0
  0
LINE
  8
0
 62
     9
 10
45.2229
 20
884.671
 30
0.0
 11
22.6122
 21
884.671
 31
0.0
  0
LINE
  8
0
 62
     9
 10
22.6109
 20
1625.83
 30
0.0
 11
22.6109
 21
1090.69
 31
0.0
  0
LINE
  8
0
 62
     9
 10
22.6109
 20
1090.69
 30
0.0
 11
45.2229
 21
1090.69
 31
0.0
  0
LINE
  8
0
 62
     9
 10
45.2229
 20
1090.69
 30
0.0
 11
45.2229
 21
1115.81
 31
0.0
  0
LINE
  8
0
 62
     9
 10
45.2229
 20
1115.81
 30
0.0
 11
103.008
 21
1115.81
 31
0.0
  0
LINE
  8
0
 62
     9
 10
103.008
 20
1115.81
 30
0.0
 11
103.008
 21
1163.55
 31
0.0
  0
LINE
  8
0
 62
     9
 10
103.008
 20
1163.55
 30
0.0
 11
884.361
 21
1163.55
 31
0.0
  0
LINE
  8
0
 62
     9
 10
884.361
 20
1163.55
 30
0.0
 11
884.361
 21
1138.5
 31
0.0
  0
LINE
  8
0
 62
     9
 10
884.361
 20
1138.5
 30
0.0
 11
911.998
 21
1138.5
 31
0.0
  0
LINE
  8
0
 62
     9
 10
911.998
 20
1138.5
 30
0.0
 11
911.998
 21
1422.32
 31
0.0
  0
LINE
  8
0
 62
     9
 10
911.998
 20
1422.32
 30
0.0
 11
884.361
 21
1422.32
 31
0.0
  0
LINE
  8
0
 62
     9
 10
884.361
 20
1422.32
 30
0.0
 11
884.361
 21
1241.43
 31
0.0
  0
LINE
  8
0
 62
     9
 10
884.361
 20
1241.43
 30
0.0
 11
103.008
 21
1241.43
 31
0.0
  0
LINE
  8
0
 62
     9
 10
103.008
 20
1241.43
 30
0.0
 11
103.008
 21
1600.7
 31
0.0
  0
LINE
  8
0
 62
     9
 10
103.008
 20
1600.7
 30
0.0
 11
45.2229
 21
1600.72
 31
0.0
  0
LINE
  8
0
 62
     9
 10
45.2229
 20
1600.72
 30
0.0
 11
45.2229
 21
1625.83
 31
0.0
  0
LINE
  8
0
 62
     9
 10
45.2229
 20
1625.83
 30
0.0
 11
22.6109
 21
1625.83
 31
0.0
  0
LINE
  8
0
 62
     9
 10
0
 20
1874.56
 30
0.0
 11
0
 21
2321.76
 31
0.0
  0
LINE
  8
0
 62
     9
 10
0
 20
2321.76
 30
0.0
 11
22.6122
 21
2321.76
 31
0.0
  0
LINE
  8
0
 62
     9
 10
22.6122
 20
2321.76
 30
0.0
 11
22.6122
 21
2344.37
 31
0.0
  0
LINE
  8
0
 62
     9
 10
22.6122
 20
2344.37
 30
0.0
 11
45.2229
 21
2344.37
 31
0.0
  0
LINE
  8
0
 62
     9
 10
45.2229
 20
2344.37
 30
0.0
 11
45.2229
 21
2321.76
 31
0.0
  0
LINE
  8
0
 62
     9
 10
45.2229
 20
2321.76
 30
0.0
 11
103.008
 21
2321.76
 31
0.0
  0
LINE
  8
0
 62
     9
 10
103.008
 20
2321.76
 30
0.0
 11
103.008
 21
1874.56
 31
0.0
  0
LINE
  8
0
 62
     9
 10
103.008
 20
1874.56
 30
0.0
 11
45.2229
 21
1874.56
 31
0.0
  0
LINE
  8
0
 62
     9
 10
45.2229
 20
1874.56
 30
0.0
 11
45.2229
 21
1851.94
 31
0.0
  0
LINE
  8
0
 62
     9
 10
45.2229
 20
1851.94
 30
0.0
 11
22.6122
 21
1851.94
 31
0.0
  0
LINE
  8
0
 62
     9
 10
22.6122
 20
1851.94
 30
0.0
 11
22.6122
 21
1874.55
 31
0.0
  0
LINE
  8
0
 62
     9
 10
22.6122
 20
1874.55
 30
0.0
 11
0
 21
1874.56
 31
0.0
  0
LINE
  8
0
 62
     9
 10
0
 20
2610.69
 30
0.0
 11
0
 21
2982.52
 31
0.0
  0
LINE
  8
0
 62
     9
 10
0
 20
2982.52
 30
0.0
 11
32.6609
 21
2982.52
 31
0.0
  0
LINE
  8
0
 62
     9
 10
32.6609
 20
2982.52
 30
0.0
 11
32.6609
 21
3002.62
 31
0.0
  0
LINE
  8
0
 62
     9
 10
32.6609
 20
3002.62
 30
0.0
 11
55.2732
 21
3002.62
 31
0.0
  0
LINE
  8
0
 62
     9
 10
55.2732
 20
3002.62
 30
0.0
 11
55.2732
 21
2964.93
 31
0.0
  0
LINE
  8
0
 62
     9
 10
55.2732
 20
2964.93
 30
0.0
 11
103.008
 21
2964.93
 31
0.0
  0
LINE
  8
0
 62
     9
 10
103.008
 20
2964.93
 30
0.0
 11
103.008
 21
2638.32
 31
0.0
  0
LINE
  8
0
 62
     9
 10
103.008
 20
2638.32
 30
0.0
 11
751.205
 21
2638.32
 31
0.0
  0
LINE
  8
0
 62
     9
 10
751.205
 20
2638.32
 30
0.0
 11
751.205
 21
2799.12
 31
0.0
  0
LINE
  8
0
 62
     9
 10
751.205
 20
2799.12
 30
0.0
 11
911.998
 21
2799.09
 31
0.0
  0
LINE
  8
0
 62
     9
 10
911.998
 20
2799.09
 30
0.0
 11
911.998
 21
1645.93
 31
0.0
  0
LINE
  8
0
 62
     9
 10
911.998
 20
1645.93
 30
0.0
 11
884.361
 21
1645.93
 31
0.0
  0
LINE
  8
0
 62
     9
 10
884.361
 20
1645.93
 30
0.0
 11
884.35
 21
2610.69
 31
0.0
  0
LINE
  8
0
 62
     9
 10
884.35
 20
2610.69
 30
0.0
 11
45.2328
 21
2610.69
 31
0.0
  0
LINE
  8
0
 62
     9
 10
45.2328
 20
2610.69
 30
0.0
 11
45.2229
 21
2588.07
 31
0.0
  0
LINE
  8
0
 62
     9
 10
45.2229
 20
2588.07
 30
0.0
 11
22.6122
 21
2588.07
 31
0.0
  0
LINE
  8
0
 62
     9
 10
22.6122
 20
2588.07
 30
0.0
 11
22.6109
 21
2610.69
 31
0.0
  0
LINE
  8
0
 62
     9
 10
22.6109
 20
2610.69
 30
0.0
 11
0
 21
2610.69
 31
0.0
  0
LINE
  8
0
 62
     9
 10
0
 20
3238.78
 30
0.0
 11
0
 21
3459.86
 31
0.0
  0
LINE
  8
0
 62
     9
 10
0
 20
3459.86
 30
0.0
 11
3173.15
 21
3459.87
 31
0.0
  0
LINE
  8
0
 62
     9
 10
3173.15
 20
3459.87
 30
0.0
 11
3173.15
 21
3469.79
 31
0.0
  0
LINE
  8
0
 62
     9
 10
3173.15
 20
3469.79
 30
0.0
 11
3695.74
 21
3469.79
 31
0.0
  0
LINE
  8
0
 62
     9
 10
3695.74
 20
3469.79
 30
0.0
 11
3695.74
 21
2271.51
 31
0.0
  0
LINE
  8
0
 62
     9
 10
3695.74
 20
2271.51
 30
0.0
 11
1788.87
 21
2271.51
 31
0.0
  0
LINE
  8
0
 62
     9
 10
1788.87
 20
2271.51
 30
0.0
 11
1788.82
 21
442.489
 31
0.0
  0
LINE
  8
0
 62
     9
 10
1788.82
 20
442.489
 30
0.0
 11
1406.94
 21
442.489
 31
0.0
  0
LINE
  8
0
 62
     9
 10
1406.94
 20
442.489
 30
0.0
 11
1406.94
 21
78.1939
 31
0.0
  0
LINE
  8
0
 62
     9
 10
1406.94
 20
78.1939
 30
0.0
 11
1439.6
 21
78.1939
 31
0.0
  0
LINE
  8
0
 62
     9
 10
1439.6
 20
78.1939
 30
0.0
 11
1439.6
 21
17.8966
 31
0.0
  0
LINE
  8
0
 62
     9
 10
1439.6
 20
17.8966
 30
0.0
 11
1208.46
 21
17.8966
 31
0.0
  0
LINE
  8
0
 62
     9
 10
1208.46
 20
17.8966
 30
0.0
 11
1208.46
 21
78.1939
 31
0.0
  0
LINE
  8
0
 62
     9
 10
1208.46
 20
78.1939
 30
0.0
 11
1346.64
 21
78.1939
 31
0.0
  0
LINE
  8
0
 62
     9
 10
1346.64
 20
78.1939
 30
0.0
 11
1346.64
 21
417.368
 31
0.0
  0
LINE
  8
0
 62
     9
 10
1346.64
 20
417.368
 30
0.0
 11
1218.51
 21
417.368
 31
0.0
  0
LINE
  8
0
 62
     9
 10
1218.51
 20
417.368
 30
0.0
 11
1218.51
 21
751.487
 31
0.0
  0
LINE
  8
0
 62
     9
 10
1218.51
 20
751.487
 30
0.0
 11
1248.66
 21
751.515
 31
0.0
  0
LINE
  8
0
 62
     9
 10
1248.66
 20
751.515
 30
0.0
 11
1248.67
 21
502.789
 31
0.0
  0
LINE
  8
0
 62
     9
 10
1248.67
 20
502.789
 30
0.0
 11
1728.46
 21
502.789
 31
0.0
  0
LINE
  8
0
 62
     9
 10
1728.46
 20
502.789
 30
0.0
 11
1728.53
 21
1090.69
 31
0.0
  0
LINE
  8
0
 62
     9
 10
1728.53
 20
1090.69
 30
0.0
 11
1248.66
 21
1090.69
 31
0.0
  0
LINE
  8
0
 62
     9
 10
1248.66
 20
1090.69
 30
0.0
 11
1248.66
 21
944.968
 31
0.0
  0
LINE
  8
0
 62
     9
 10
1248.66
 20
944.968
 30
0.0
 11
1218.51
 21
944.972
 31
0.0
  0
LINE
  8
0
 62
     9
 10
1218.51
 20
944.972
 30
0.0
 11
1218.51
 21
1427.24
 31
0.0
  0
LINE
  8
0
 62
     9
 10
1218.51
 20
1427.24
 30
0.0
 11
1248.66
 21
1427.35
 31
0.0
  0
LINE
  8
0
 62
     9
 10
1248.66
 20
1427.35
 30
0.0
 11
1248.66
 21
1241.43
 31
0.0
  0
LINE
  8
0
 62
     9
 10
1248.66
 20
1241.43
 30
0.0
 11
1728.53
 21
1241.43
 31
0.0
  0
LINE
  8
0
 62
     9
 10
1728.53
 20
1241.43
 30
0.0
 11
1728.53
 21
1907.22
 31
0.0
  0
LINE
  8
0
 62
     9
 10
1728.53
 20
1907.22
 30
0.0
 11
1364.23
 21
1907.2
 31
0.0
  0
LINE
  8
0
 62
     9
 10
1364.23
 20
1907.2
 30
0.0
 11
1364.23
 21
1645.93
 31
0.0
  0
LINE
  8
0
 62
     9
 10
1364.23
 20
1645.93
 30
0.0
 11
1248.66
 21
1645.93
 31
0.0
  0
LINE
  8
0
 62
     9
 10
1248.66
 20
1645.93
 30
0.0
 11
1248.66
 21
1620.8
 31
0.0
  0
LINE
  8
0
 62
     9
 10
1248.66
 20
1620.8
 30
0.0
 11
1218.51
 21
1620.8
 31
0.0
  0
LINE
  8
0
 62
     9
 10
1218.51
 20
1620.8
 30
0.0
 11
1218.51
 21
1970.02
 31
0.0
  0
LINE
  8
0
 62
     9
 10
1218.51
 20
1970.02
 30
0.0
 11
1248.66
 21
1970.02
 31
0.0
  0
LINE
  8
0
 62
     9
 10
1248.66
 20
1970.02
 30
0.0
 11
1248.66
 21
1944.9
 31
0.0
  0
LINE
  8
0
 62
     9
 10
1248.66
 20
1944.9
 30
0.0
 11
1728.53
 21
1944.9
 31
0.0
  0
LINE
  8
0
 62
     9
 10
1728.53
 20
1944.9
 30
0.0
 11
1728.53
 21
2221.27
 31
0.0
  0
LINE
  8
0
 62
     9
 10
1728.53
 20
2221.27
 30
0.0
 11
1248.66
 21
2221.27
 31
0.0
  0
LINE
  8
0
 62
     9
 10
1248.66
 20
2221.27
 30
0.0
 11
1248.66
 21
2196.14
 31
0.0
  0
LINE
  8
0
 62
     9
 10
1248.66
 20
2196.14
 30
0.0
 11
1218.51
 21
2196.14
 31
0.0
  0
LINE
  8
0
 62
     9
 10
1218.51
 20
2196.14
 30
0.0
 11
1218.51
 21
2349.27
 31
0.0
  0
LINE
  8
0
 62
     9
 10
1218.51
 20
2349.27
 30
0.0
 11
3173.15
 21
2349.39
 31
0.0
  0
LINE
  8
0
 62
     9
 10
3173.15
 20
2349.39
 30
0.0
 11
3173.15
 21
2487.58
 31
0.0
  0
LINE
  8
0
 62
     9
 10
3173.15
 20
2487.58
 30
0.0
 11
3220.89
 21
2487.58
 31
0.0
  0
LINE
  8
0
 62
     9
 10
3220.89
 20
2487.58
 30
0.0
 11
3220.89
 21
2522.75
 31
0.0
  0
LINE
  8
0
 62
     9
 10
3220.89
 20
2522.75
 30
0.0
 11
3243.5
 21
2522.75
 31
0.0
  0
LINE
  8
0
 62
     9
 10
3243.5
 20
2522.75
 30
0.0
 11
3243.5
 21
2487.58
 31
0.0
  0
LINE
  8
0
 62
     9
 10
3243.5
 20
2487.58
 30
0.0
 11
3276.16
 21
2487.58
 31
0.0
  0
LINE
  8
0
 62
     9
 10
3276.16
 20
2487.58
 30
0.0
 11
3276.2
 21
2402.16
 31
0.0
  0
LINE
  8
0
 62
     9
 10
3276.2
 20
2402.16
 30
0.0
 11
3665.57
 21
2402.16
 31
0.0
  0
LINE
  8
0
 62
     9
 10
3665.57
 20
2402.16
 30
0.0
 11
3665.57
 21
3462.39
 31
0.0
  0
LINE
  8
0
 62
     9
 10
3665.57
 20
3462.39
 30
0.0
 11
3276.16
 21
3462.38
 31
0.0
  0
LINE
  8
0
 62
     9
 10
3276.16
 20
3462.38
 30
0.0
 11
3276.16
 21
3289.03
 31
0.0
  0
LINE
  8
0
 62
     9
 10
3276.16
 20
3289.03
 30
0.0
 11
3243.5
 21
3289.02
 31
0.0
  0
LINE
  8
0
 62
     9
 10
3243.5
 20
3289.02
 30
0.0
 11
3243.5
 21
3266.42
 31
0.0
  0
LINE
  8
0
 62
     9
 10
3243.5
 20
3266.42
 30
0.0
 11
3220.89
 21
3266.42
 31
0.0
  0
LINE
  8
0
 62
     9
 10
3220.89
 20
3266.42
 30
0.0
 11
3220.89
 21
3289.03
 31
0.0
  0
LINE
  8
0
 62
     9
 10
3220.89
 20
3289.03
 30
0.0
 11
3173.15
 21
3289.03
 31
0.0
  0
LINE
  8
0
 62
     9
 10
3173.15
 20
3289.03
 30
0.0
 11
3173.15
 21
3409.63
 31
0.0
  0
LINE
  8
0
 62
     9
 10
3173.15
 20
3409.63
 30
0.0
 11
911.998
 21
3409.63
 31
0.0
  0
LINE
  8
0
 62
     9
 10
911.998
 20
3409.63
 30
0.0
 11
912.008
 21
3251.34
 31
0.0
  0
LINE
  8
0
 62
     9
 10
912.008
 20
3251.34
 30
0.0
 11
811.502
 21
3251.34
 31
0.0
  0
LINE
  8
0
 62
     9
 10
811.502
 20
3251.34
 30
0.0
 11
811.502
 21
3409.63
 31
0.0
  0
LINE
  8
0
 62
     9
 10
811.502
 20
3409.63
 30
0.0
 11
103.008
 21
3409.09
 31
0.0
  0
LINE
  8
0
 62
     9
 10
103.008
 20
3409.09
 30
0.0
 11
103.008
 21
3256.37
 31
0.0
  0
LINE
  8
0
 62
     9
 10
103.008
 20
3256.37
 30
0.0
 11
55.2732
 21
3256.37
 31
0.0
  0
LINE
  8
0
 62
     9
 10
55.2732
 20
3256.37
 30
0.0
 11
55.2718
 21
3221.2
 31
0.0
  0
LINE
  8
0
 62
     9
 10
55.2718
 20
3221.2
 30
0.0
 11
32.6609
 21
3221.2
 31
0.0
  0
LINE
  8
0
 62
     9
 10
32.6609
 20
3221.2
 30
0.0
 11
32.6609
 21
3238.78
 31
0.0
  0
LINE
  8
0
 62
     9
 10
32.6609
 20
3238.78
 30
0.0
 11
0
 21
3238.78
 31
0.0
  0
LINE
  8
0
 62
     9
 10
3220.89
 20
2796.6
 30
0.0
 11
3243.5
 21
2796.6
 31
0.0
  0
LINE
  8
0
 62
     9
 10
3243.5
 20
2796.6
 30
0.0
 11
3243.5
 21
2761.43
 31
0.0
  0
LINE
  8
0
 62
     9
 10
3243.5
 20
2761.43
 30
0.0
 11
3220.89
 21
2761.43
 31
0.0
  0
LINE
  8
0
 62
     9
 10
3220.89
 20
2761.43
 30
0.0
 11
3220.89
 21
2796.6
 31
0.0
  0
LINE
  8
0
 62
     9
 10
3220.89
 20
3055.38
 30
0.0
 11
3243.5
 21
3055.38
 31
0.0
  0
LINE
  8
0
 62
     9
 10
3243.5
 20
3055.38
 30
0.0
 11
3243.5
 21
3020.2
 31
0.0
  0
LINE
  8
0
 62
     9
 10
3243.5
 20
3020.2
 30
0.0
 11
3220.89
 21
3020.2
 31
0.0
  0
LINE
  8
0
 62
     9
 10
3220.89
 20
3020.2
 30
0.0
 11
3220.89
 21
3055.38
 31
0.0
  0
ENDSEC
  0
EOF
