  0
SECTION
  2
HEADER
  9
$ACADVER
  1
AC1009
  9
$FILLMODE
 70
 0
  9
$SPLFRAME
 70
 1
  9
$EXTMIN
 10
0
 20
0
 30
0.0
  9
$EXTMAX
 10
1058.33
 20
1058.33
 30
0.0
  0
ENDSEC
  0
SECTION
  2
TABLES
  0
TABLE
  2
LAYER
 70
1
  0
LAYER
  2
0
 70
     0
 62
     7
  6
CONTINUOUS
  0
ENDTAB
  0
ENDSEC
  0
SECTION
  2
ENTITIES
  0
LINE
  8
0
 62
     4
 10
22.6122
 20
2588.07
 30
0.0
 11
45.2229
 21
2588.07
 31
0.0
  0
LINE
  8
0
 62
     4
 10
45.2229
 20
2588.07
 30
0.0
 11
45.2229
 21
2344.37
 31
0.0
  0
LINE
  8
0
 62
     4
 10
45.2229
 20
2344.37
 30
0.0
 11
22.6109
 21
2344.37
 31
0.0
  0
LINE
  8
0
 62
     4
 10
22.6109
 20
2344.37
 30
0.0
 11
22.6122
 21
2588.07
 31
0.0
  0
LINE
  8
0
 62
     4
 10
22.6122
 20
1851.94
 30
0.0
 11
45.2229
 21
1851.94
 31
0.0
  0
LINE
  8
0
 62
     4
 10
45.2229
 20
1851.94
 30
0.0
 11
45.2229
 21
1625.83
 31
0.0
  0
LINE
  8
0
 62
     4
 10
45.2229
 20
1625.83
 30
0.0
 11
22.6109
 21
1625.83
 31
0.0
  0
LINE
  8
0
 62
     4
 10
22.6109
 20
1625.83
 30
0.0
 11
22.6122
 21
1851.94
 31
0.0
  0
LINE
  8
0
 62
     4
 10
22.6109
 20
1090.69
 30
0.0
 11
45.2229
 21
1090.69
 31
0.0
  0
LINE
  8
0
 62
     4
 10
45.2229
 20
1090.69
 30
0.0
 11
45.2229
 21
884.671
 31
0.0
  0
LINE
  8
0
 62
     4
 10
45.2229
 20
884.671
 30
0.0
 11
22.6122
 21
884.671
 31
0.0
  0
LINE
  8
0
 62
     4
 10
22.6122
 20
884.671
 30
0.0
 11
22.6109
 21
1090.69
 31
0.0
  0
LINE
  8
0
 62
     4
 10
22.6109
 20
590.723
 30
0.0
 11
45.2229
 21
590.723
 31
0.0
  0
LINE
  8
0
 62
     4
 10
45.2229
 20
590.723
 30
0.0
 11
45.2229
 21
364.606
 31
0.0
  0
LINE
  8
0
 62
     4
 10
45.2229
 20
364.606
 30
0.0
 11
22.6122
 21
364.606
 31
0.0
  0
LINE
  8
0
 62
     4
 10
22.6122
 20
364.606
 30
0.0
 11
22.6109
 21
590.723
 31
0.0
  0
LINE
  8
0
 62
     4
 10
32.6609
 20
3221.2
 30
0.0
 11
55.2718
 21
3221.2
 31
0.0
  0
LINE
  8
0
 62
     4
 10
55.2718
 20
3221.2
 30
0.0
 11
55.2732
 21
3002.62
 31
0.0
  0
LINE
  8
0
 62
     4
 10
55.2732
 20
3002.62
 30
0.0
 11
32.6609
 21
3002.62
 31
0.0
  0
LINE
  8
0
 62
     4
 10
32.6609
 20
3002.62
 30
0.0
 11
32.6609
 21
3221.2
 31
0.0
  0
LINE
  8
0
 62
     4
 10
3220.89
 20
3266.42
 30
0.0
 11
3243.5
 21
3266.42
 31
0.0
  0
LINE
  8
0
 62
     4
 10
3243.5
 20
3266.42
 30
0.0
 11
3243.5
 21
3055.38
 31
0.0
  0
LINE
  8
0
 62
     4
 10
3243.5
 20
3055.38
 30
0.0
 11
3220.89
 21
3055.38
 31
0.0
  0
LINE
  8
0
 62
     4
 10
3220.89
 20
3055.38
 30
0.0
 11
3220.89
 21
3266.42
 31
0.0
  0
LINE
  8
0
 62
     4
 10
3220.89
 20
3020.2
 30
0.0
 11
3243.5
 21
3020.2
 31
0.0
  0
LINE
  8
0
 62
     4
 10
3243.5
 20
3020.2
 30
0.0
 11
3243.5
 21
2796.6
 31
0.0
  0
LINE
  8
0
 62
     4
 10
3243.5
 20
2796.6
 30
0.0
 11
3220.89
 21
2796.6
 31
0.0
  0
LINE
  8
0
 62
     4
 10
3220.89
 20
2796.6
 30
0.0
 11
3220.89
 21
3020.2
 31
0.0
  0
LINE
  8
0
 62
     4
 10
3220.89
 20
2761.43
 30
0.0
 11
3243.5
 21
2761.43
 31
0.0
  0
LINE
  8
0
 62
     4
 10
3243.5
 20
2761.43
 30
0.0
 11
3243.5
 21
2522.75
 31
0.0
  0
LINE
  8
0
 62
     4
 10
3243.5
 20
2522.75
 30
0.0
 11
3220.89
 21
2522.75
 31
0.0
  0
LINE
  8
0
 62
     4
 10
3220.89
 20
2522.75
 30
0.0
 11
3220.89
 21
2761.43
 31
0.0
  0
ENDSEC
  0
EOF
