<svg xmlns="http://www.w3.org/2000/svg" xml:space="preserve" viewBox="0 0 512 512"><path d="M425.432 512H86.568V252.932L256 64.022l169.432 188.91z" style="fill:#ececed"/><path d="M425.432 512H256V50.087l169.432 202.845z" style="fill:#d7d7d7"/><path d="M256 21.655 51.96 259.061l25.282 21.811L256 72.884l178.758 207.988 25.282-21.811z" style="fill:#d7d7d7"/><path d="M256 21.655v51.229l178.758 207.988 25.282-21.811z" style="fill:#b0b0b0"/><path d="M359.775 321.412v-33.391h-21.342v-19.846h-19.846v-21.341h-33.391v21.341h-12.501v-21.341h-33.391v21.341h-12.501v-21.341h-33.391v21.341h-19.846v19.846h-21.341v33.391h21.341v14.64h-21.341v33.391h21.341v10.362h-21.341v33.391h21.341v19.846h19.846v21.342h33.391v-21.342h12.501v21.342h33.391v-21.342h12.501v21.342h33.391v-21.342h19.846v-19.846h21.342v-33.391h-21.342v-12.502h21.342v-33.391h-21.342v-12.501h21.342z" style="fill:#b5e45f"/><path d="M359.775 321.412v-33.391h-21.341v-19.845h-19.846v-21.342h-33.392v21.342h-12.5v-21.342H256v207.549h16.696v-21.341h12.5v21.341h33.392v-21.341h19.846v-19.846h21.341v-33.391h-21.341v-12.501h21.341v-33.391h-21.341v-12.501z" style="fill:#7dbb4e"/><path d="M206.959 301.568h98.081v98.081h-98.081z" style="fill:#7dbb4e"/><path d="M256 301.568h49.041v98.081H256z" style="fill:#588d3f"/><path d="M287.713 170.483c-8.47-8.47-19.733-13.135-31.713-13.135s-23.241 4.665-31.712 13.135l-23.612-23.611c14.777-14.777 34.424-22.915 55.324-22.915 20.898 0 40.546 8.139 55.324 22.915l-23.611 23.611zm87.65-87.65C343.479 50.95 301.088 33.391 256 33.391S168.521 50.95 136.637 82.833l-23.611-23.611C151.217 21.032 201.993 0 256 0s104.783 21.032 142.974 59.222l-23.611 23.611z" style="fill:#92e5ea"/><path d="M331.538 126.658C311.361 106.482 284.534 95.37 256 95.37s-55.361 11.112-75.537 31.288l-23.611-23.611C183.335 76.563 218.547 61.979 256 61.979s72.665 14.585 99.149 41.068l-23.611 23.611z" style="fill:#92e5ea"/><path d="m287.713 170.483 23.611-23.611c-14.777-14.778-34.425-22.915-55.324-22.915v33.391c11.98 0 23.241 4.665 31.713 13.135zM398.974 59.222C360.783 21.032 310.007 0 256 0v33.391c45.088 0 87.479 17.558 119.363 49.441l23.611-23.61zm-67.436 67.436 23.611-23.612C328.665 76.563 293.453 61.979 256 61.979V95.37c28.534 0 55.361 11.112 75.538 31.288z" style="fill:#79bbbc"/></svg>